<svg width="100" height="100" viewBox="0 0 100 100" fill="none" xmlns="http://www.w3.org/2000/svg">
  <circle cx="50" cy="50" r="48" fill="#FAF8F5"/>
  <path d="M 66 9 A 44 44 0 1 0 79 78" stroke="#8c2424" stroke-width="2.2" stroke-linecap="round" fill="none"/>
  <path d="M 16 80 C 28 83, 38 78, 50 80 C 62 82, 72 77, 84 80" stroke="#dca89d" stroke-width="1.5" stroke-linecap="round" fill="none"/>
  <path d="M 12 85 C 27 88, 37 83, 50 85 C 63 87, 73 82, 88 85" stroke="#8c2424" stroke-width="1.5" stroke-linecap="round" fill="none"/>
  <path d="M 42 74 V 62 H 56 V 74 H 52.5 V 64 A 3.5 3.5 0 0 0 45.5 64 V 74 H 42 Z" fill="#dca89d"/>
  <rect x="41" y="58" width="14" height="4" fill="#dca89d" rx="0.5"/>
  <rect x="42.5" y="54" width="11" height="4" fill="#dca89d" rx="0.5"/>
  <rect x="45" y="50" width="6" height="4" fill="#dca89d" rx="0.8"/>
  <rect x="27" y="74" width="8" height="2" fill="#8c2424" rx="0.5"/>
  <path d="M 28 74 L 28.8 62 H 33.2 L 34 74 Z" fill="#8c2424"/>
  <rect x="26.5" y="60" width="9" height="2" fill="#8c2424" rx="0.3"/>
  <path d="M 28.5 60 L 29.2 50 H 32.8 L 33.5 60 Z" fill="#8c2424"/>
  <rect x="27" y="48" width="8" height="2" fill="#8c2424" rx="0.3"/>
  <path d="M 29 48 L 29.5 39 H 32.5 L 33 48 Z" fill="#8c2424"/>
  <rect x="28" y="37" width="6" height="2" fill="#8c2424" rx="0.3"/>
  <path d="M 29.5 37 L 30.5 22 Q 31 20 31.5 22 L 32.5 37 Z" fill="#8c2424"/>
  <path d="M 31 32 C 45 32, 45 47, 31 47" stroke="#8c2424" stroke-width="5" stroke-linecap="round" fill="none"/>
  <path d="M 31 47 C 64 47, 64 76, 31 76" stroke="#8c2424" stroke-width="5" stroke-linecap="round" fill="none"/>
  <path d="M 18 73 C 14 71, 13 74, 15 77 C 18 77, 19 75, 18 73 Z" fill="#8c2424"/>
  <path d="M 22 66 C 19 63, 17 65, 19 70 C 21 70, 22 68, 22 66 Z" fill="#5d7c6b"/>
  <path d="M 26 73 C 24 71, 23 74, 24 77 C 26 77, 27 75, 26 73 Z" fill="#8c2424"/>
  <path d="M 35 71 C 33 68, 32 71, 34 76 C 36 76, 37 74, 35 71 Z" fill="#5d7c6b"/>
  <path d="M 39 65 C 37 62, 35 64, 37 69 C 39 69, 40 67, 39 65 Z" fill="#8c2424"/>
  <path d="M 43 71 C 41 68, 40 71, 42 76 C 44 76, 45 74, 43 71 Z" fill="#5d7c6b"/>
  <path d="M 50 72 C 45 77, 43 83, 50 86 C 57 83, 55 77, 50 72 Z" fill="#8c2424" stroke="#FAF8F5" stroke-width="0.8"/>
  <path d="M 50 78 C 42 79, 39 82, 46 85 C 48 83, 50 80, 50 78 Z" fill="#8c2424" stroke="#FAF8F5" stroke-width="0.8"/>
  <path d="M 50 78 C 58 79, 61 82, 54 85 C 52 83, 50 80, 50 78 Z" fill="#8c2424" stroke="#FAF8F5" stroke-width="0.8"/>
  <path d="M 78 81 C 86 76, 88 56, 78 32 C 75 25, 70 19, 65 15" stroke="#8c2424" stroke-width="1.2" fill="none" stroke-linecap="round"/>
  <path d="M 79 72 C 83 70, 85 71, 84 76 C 81 77, 79 75, 79 72 Z" fill="#8c2424"/>
  <path d="M 83 63 C 88 61, 90 63, 89 68 C 86 69, 84 67, 83 63 Z" fill="#5d7c6b"/>
  <path d="M 84 52 C 89 49, 91 51, 89 56 C 86 57, 84 55, 84 52 Z" fill="#dca89d"/>
  <path d="M 81 41 C 85 37, 87 39, 85 44 C 82 45, 81 43, 81 41 Z" fill="#5d7c6b"/>
  <path d="M 75 31 C 79 26, 81 28, 78 33 C 75 33, 74 31, 75 31 Z" fill="#8c2424"/>
  <path d="M 68 22 C 71 17, 73 19, 69 25 C 67 25, 66 23, 68 22 Z" fill="#5d7c6b"/>
  <circle cx="81" cy="68" r="1.3" fill="#8c2424"/>
  <circle cx="83" cy="69" r="1.3" fill="#8c2424"/>
  <circle cx="85" cy="59" r="1.3" fill="#8c2424"/>
  <circle cx="87" cy="48" r="1.3" fill="#8c2424"/>
  <circle cx="82" cy="36" r="1.3" fill="#8c2424"/>
  <circle cx="73" cy="27" r="1.3" fill="#8c2424"/>
</svg>
